<svg xmlns="http://www.w3.org/2000/svg" xmlns:xlink="http://www.w3.org/1999/xlink" width="204" zoomAndPan="magnify" viewBox="0 0 153 31.5" height="42" preserveAspectRatio="xMidYMid meet" version="1.0"><defs><g/><clipPath id="2de1873fa0"><path d="M 98 0 L 106 0 L 106 9 L 98 9 Z M 98 0 " clip-rule="nonzero"/></clipPath><clipPath id="90f887b5bb"><path d="M 100.152344 10.523438 L 95.972656 6.34375 L 103.804688 -1.484375 L 107.980469 2.691406 Z M 100.152344 10.523438 " clip-rule="nonzero"/></clipPath><clipPath id="26bf95e849"><path d="M 95.84375 6.214844 L 100.019531 10.390625 L 107.851562 2.558594 L 103.675781 -1.617188 Z M 95.84375 6.214844 " clip-rule="nonzero"/></clipPath></defs><g fill="#ffffff" fill-opacity="1"><g transform="translate(17.297916, 26.775002)"><g><path d="M 9.890625 0.40625 C 8.285156 0.40625 6.863281 0.0390625 5.625 -0.6875 C 4.382812 -1.425781 3.40625 -2.445312 2.6875 -3.75 C 1.976562 -5.0625 1.625 -6.609375 1.625 -8.390625 C 1.625 -10.148438 1.972656 -11.691406 2.671875 -13.015625 C 3.367188 -14.335938 4.34375 -15.363281 5.59375 -16.09375 C 6.851562 -16.832031 8.304688 -17.203125 9.953125 -17.203125 C 11.578125 -17.203125 12.984375 -16.832031 14.171875 -16.09375 C 15.359375 -15.363281 16.265625 -14.398438 16.890625 -13.203125 C 17.523438 -12.003906 17.84375 -10.71875 17.84375 -9.34375 C 17.84375 -9.09375 17.835938 -8.84375 17.828125 -8.59375 C 17.816406 -8.351562 17.8125 -8.070312 17.8125 -7.75 L 4.4375 -7.75 C 4.5 -6.46875 4.796875 -5.398438 5.328125 -4.546875 C 5.859375 -3.703125 6.523438 -3.066406 7.328125 -2.640625 C 8.128906 -2.210938 8.984375 -2 9.890625 -2 C 11.054688 -2 12.035156 -2.269531 12.828125 -2.8125 C 13.617188 -3.351562 14.195312 -4.085938 14.5625 -5.015625 L 17.375 -5.015625 C 16.914062 -3.453125 16.046875 -2.15625 14.765625 -1.125 C 13.492188 -0.101562 11.867188 0.40625 9.890625 0.40625 Z M 9.890625 -14.796875 C 8.535156 -14.796875 7.332031 -14.382812 6.28125 -13.5625 C 5.226562 -12.738281 4.625 -11.535156 4.46875 -9.953125 L 15.03125 -9.953125 C 14.96875 -11.460938 14.445312 -12.644531 13.46875 -13.5 C 12.5 -14.363281 11.304688 -14.796875 9.890625 -14.796875 Z M 9.890625 -14.796875 "/></g></g></g><g fill="#ffffff" fill-opacity="1"><g transform="translate(36.5626, 26.775002)"><g><path d="M 7.171875 0 L 0.8125 -16.796875 L 3.796875 -16.796875 L 8.84375 -2.75 L 13.921875 -16.796875 L 16.828125 -16.796875 L 10.46875 0 Z M 7.171875 0 "/></g></g></g><g fill="#ffffff" fill-opacity="1"><g transform="translate(54.202143, 26.775002)"><g><path d="M 9.890625 0.40625 C 8.285156 0.40625 6.863281 0.0390625 5.625 -0.6875 C 4.382812 -1.425781 3.40625 -2.445312 2.6875 -3.75 C 1.976562 -5.0625 1.625 -6.609375 1.625 -8.390625 C 1.625 -10.148438 1.972656 -11.691406 2.671875 -13.015625 C 3.367188 -14.335938 4.34375 -15.363281 5.59375 -16.09375 C 6.851562 -16.832031 8.304688 -17.203125 9.953125 -17.203125 C 11.578125 -17.203125 12.984375 -16.832031 14.171875 -16.09375 C 15.359375 -15.363281 16.265625 -14.398438 16.890625 -13.203125 C 17.523438 -12.003906 17.84375 -10.71875 17.84375 -9.34375 C 17.84375 -9.09375 17.835938 -8.84375 17.828125 -8.59375 C 17.816406 -8.351562 17.8125 -8.070312 17.8125 -7.75 L 4.4375 -7.75 C 4.5 -6.46875 4.796875 -5.398438 5.328125 -4.546875 C 5.859375 -3.703125 6.523438 -3.066406 7.328125 -2.640625 C 8.128906 -2.210938 8.984375 -2 9.890625 -2 C 11.054688 -2 12.035156 -2.269531 12.828125 -2.8125 C 13.617188 -3.351562 14.195312 -4.085938 14.5625 -5.015625 L 17.375 -5.015625 C 16.914062 -3.453125 16.046875 -2.15625 14.765625 -1.125 C 13.492188 -0.101562 11.867188 0.40625 9.890625 0.40625 Z M 9.890625 -14.796875 C 8.535156 -14.796875 7.332031 -14.382812 6.28125 -13.5625 C 5.226562 -12.738281 4.625 -11.535156 4.46875 -9.953125 L 15.03125 -9.953125 C 14.96875 -11.460938 14.445312 -12.644531 13.46875 -13.5 C 12.5 -14.363281 11.304688 -14.796875 9.890625 -14.796875 Z M 9.890625 -14.796875 "/></g></g></g><g fill="#ffffff" fill-opacity="1"><g transform="translate(73.466826, 26.775002)"><g><path d="M 2.34375 0 L 2.34375 -16.796875 L 4.90625 -16.796875 L 5.140625 -13.578125 C 5.660156 -14.679688 6.453125 -15.5625 7.515625 -16.21875 C 8.578125 -16.875 9.882812 -17.203125 11.4375 -17.203125 L 11.4375 -14.21875 L 10.671875 -14.21875 C 9.671875 -14.21875 8.753906 -14.039062 7.921875 -13.6875 C 7.085938 -13.34375 6.421875 -12.753906 5.921875 -11.921875 C 5.429688 -11.085938 5.1875 -9.9375 5.1875 -8.46875 L 5.1875 0 Z M 2.34375 0 "/></g></g></g><g fill="#ffffff" fill-opacity="1"><g transform="translate(85.756951, 26.775002)"><g><path d="M 3.25 0 L 3.25 -14.390625 L 0.71875 -14.390625 L 0.71875 -16.796875 L 3.25 -16.796875 L 3.25 -19.703125 C 3.25 -21.328125 3.65625 -22.507812 4.46875 -23.25 C 5.28125 -24 6.46875 -24.375 8.03125 -24.375 L 9.71875 -24.375 L 9.71875 -21.9375 L 8.46875 -21.9375 C 7.601562 -21.9375 6.988281 -21.757812 6.625 -21.40625 C 6.269531 -21.0625 6.09375 -20.472656 6.09375 -19.640625 L 6.09375 -16.796875 L 10.21875 -16.796875 L 10.21875 -14.390625 L 6.09375 -14.390625 L 6.09375 0 Z M 3.25 0 "/></g></g></g><g fill="#ffffff" fill-opacity="1"><g transform="translate(97.031364, 26.775002)"><g><path d="M 4.0625 -20.515625 C 3.5 -20.515625 3.03125 -20.703125 2.65625 -21.078125 C 2.28125 -21.453125 2.09375 -21.921875 2.09375 -22.484375 C 2.09375 -23.023438 2.28125 -23.472656 2.65625 -23.828125 C 3.03125 -24.191406 3.5 -24.375 4.0625 -24.375 C 4.601562 -24.375 5.066406 -24.191406 5.453125 -23.828125 C 5.835938 -23.472656 6.03125 -23.023438 6.03125 -22.484375 C 6.03125 -21.921875 5.835938 -21.453125 5.453125 -21.078125 C 5.066406 -20.703125 4.601562 -20.515625 4.0625 -20.515625 Z M 2.640625 0 L 2.640625 -16.796875 L 5.484375 -16.796875 L 5.484375 0 Z M 2.640625 0 "/></g></g></g><g fill="#ffffff" fill-opacity="1"><g transform="translate(105.123213, 26.775002)"><g><path d="M 8.96875 0 C 7.4375 0 6.226562 -0.367188 5.34375 -1.109375 C 4.46875 -1.859375 4.03125 -3.203125 4.03125 -5.140625 L 4.03125 -14.390625 L 1.125 -14.390625 L 1.125 -16.796875 L 4.03125 -16.796875 L 4.40625 -20.828125 L 6.875 -20.828125 L 6.875 -16.796875 L 11.8125 -16.796875 L 11.8125 -14.390625 L 6.875 -14.390625 L 6.875 -5.140625 C 6.875 -4.085938 7.085938 -3.375 7.515625 -3 C 7.941406 -2.625 8.695312 -2.4375 9.78125 -2.4375 L 11.546875 -2.4375 L 11.546875 0 Z M 8.96875 0 "/></g></g></g><g clip-path="url(#2de1873fa0)"><g clip-path="url(#90f887b5bb)"><g clip-path="url(#26bf95e849)"><path fill="#149d80" d="M 103.761719 6.238281 C 105.734375 4.269531 105.53125 0.871094 105.53125 0.871094 C 105.53125 0.871094 102.09375 0.628906 100.125 2.601562 C 98.152344 4.574219 98.394531 8.011719 98.394531 8.011719 C 98.394531 8.011719 101.789062 8.210938 103.761719 6.238281 " fill-opacity="1" fill-rule="nonzero"/></g></g></g></svg>